<svg xmlns="http://www.w3.org/2000/svg" xmlns:xlink="http://www.w3.org/1999/xlink" viewBox="0 0 20 20" version="1.1">
<g id="surface1">
<path style=" stroke:none;fill-rule:nonzero;fill:rgb(0%,0%,0%);fill-opacity:1;" d="M 20 3.332031 C 20 1.582031 18.417969 0 16.667969 0 L 3.332031 0 C 1.582031 0 0 1.582031 0 3.332031 L 0 16.667969 C 0 18.417969 1.582031 20 3.332031 20 L 10 20 L 10 12.445312 L 7.554688 12.445312 L 7.554688 9.109375 L 10 9.109375 L 10 7.8125 C 10 5.574219 11.683594 3.554688 13.75 3.554688 L 16.445312 3.554688 L 16.445312 6.890625 L 13.75 6.890625 C 13.457031 6.890625 13.109375 7.246094 13.109375 7.78125 L 13.109375 9.109375 L 16.445312 9.109375 L 16.445312 12.445312 L 13.109375 12.445312 L 13.109375 20 L 16.667969 20 C 18.417969 20 20 18.417969 20 16.667969 Z M 20 3.332031 "/>
</g>
</svg>
