<?xml version="1.0" standalone="no"?>
<!DOCTYPE svg PUBLIC "-//W3C//DTD SVG 20010904//EN"
 "http://www.w3.org/TR/2001/REC-SVG-20010904/DTD/svg10.dtd">
<svg version="1.0" xmlns="http://www.w3.org/2000/svg"
 width="152.000000pt" height="152.000000pt" viewBox="0 0 152.000000 152.000000"
 preserveAspectRatio="xMidYMid meet">
<metadata>
Created by potrace 1.11, written by Peter Selinger 2001-2013
</metadata>
<g transform="translate(0.000000,152.000000) scale(0.100000,-0.100000)"
fill="#000000" stroke="none">
<path d="M0 760 l0 -760 760 0 760 0 0 760 0 760 -760 0 -760 0 0 -760z m420
621 c0 -11 4 -22 9 -25 4 -3 11 -23 15 -45 3 -22 10 -42 14 -45 4 -2 28 11 52
31 82 65 136 83 247 83 83 0 106 -4 150 -24 56 -26 143 -100 143 -121 0 -8 3
-15 8 -17 11 -5 52 -93 52 -111 0 -9 4 -18 9 -21 5 -4 12 -25 16 -48 4 -23 11
-49 16 -58 24 -44 49 -320 31 -343 -5 -7 -13 -31 -17 -54 -4 -24 -11 -45 -16
-49 -5 -3 -9 -12 -9 -20 0 -9 -15 -48 -34 -87 -59 -127 -66 -145 -66 -165 0
-12 -4 -23 -9 -26 -5 -4 -13 -41 -17 -84 -4 -42 -9 -69 -12 -59 -2 9 -8 17
-13 17 -5 0 -9 6 -9 13 0 6 -15 39 -32 72 -29 54 -32 69 -32 147 -1 57 3 91
12 99 6 7 12 20 12 29 0 8 7 28 15 44 8 15 15 33 15 38 0 6 6 24 14 41 8 18
24 55 36 82 11 28 24 57 29 65 5 9 12 31 16 50 4 19 12 41 17 47 6 7 13 41 15
76 5 62 5 64 -28 95 -19 18 -50 39 -69 48 -19 8 -45 20 -58 27 -28 13 -175 13
-205 0 -12 -6 -44 -20 -72 -33 -51 -23 -165 -124 -165 -146 0 -7 -3 -14 -7
-16 -11 -4 -41 -68 -49 -103 -4 -16 -10 -35 -15 -40 -4 -6 -9 -26 -11 -45 l-4
-35 -8 30 c-4 17 -11 37 -16 46 -4 9 -12 38 -15 65 -4 27 -12 54 -17 61 -20
25 10 415 35 439 4 4 7 27 7 51 0 24 5 43 10 43 6 0 10 -9 10 -19z"/>
</g>
</svg>
